<svg xmlns:xlink="http://www.w3.org/1999/xlink" xmlns="http://www.w3.org/2000/svg" width="24" height="24" viewBox="0 0 24 24" fill="none">
<path d="M16.3323 2.98516C14.4926 3.24629 13.0682 4.96142 13.0326 7.05045C15.5786 7.51929 17.5015 9.22849 17.5015 12.2789C17.5015 15.2226 15.0564 17.6024 12 17.6024C8.96143 17.6083 6.49852 14.9377 6.49852 11.4777C6.49852 6.70623 10.7359 2.74777 16.095 2.8724C14.8427 2.31454 13.4599 2 12 2C6.48071 2 2 6.47478 2 12C2 17.5252 6.48071 22 12 22C17.5193 22 22 17.5252 22 12C22 8.02967 19.6855 4.59941 16.3323 2.98516Z" fill="#EC2929"/>
</svg>