<svg xmlns:xlink="http://www.w3.org/1999/xlink" xmlns="http://www.w3.org/2000/svg" width="24" height="24" viewBox="0 0 24 24" fill="none">
<path fill-rule="evenodd" clip-rule="evenodd" d="M12.2068 1C12.9849 1 13.6157 1.6308 13.6157 2.40894V7.51635C13.6157 8.29449 12.9849 8.9253 12.2068 8.9253C11.4287 8.9253 10.7979 8.29449 10.7979 7.51635V2.40894C10.7979 1.6308 11.4287 1 12.2068 1Z" fill="#EC2929"/>
<path fill-rule="evenodd" clip-rule="evenodd" d="M22.9266 8.78823C23.1671 9.52828 22.7621 10.3231 22.022 10.5636L17.1646 12.1419C16.4245 12.3823 15.6297 11.9773 15.3892 11.2373C15.1487 10.4972 15.5537 9.70236 16.2938 9.46191L21.1512 7.88363C21.8913 7.64317 22.6861 8.04817 22.9266 8.78823Z" fill="#EC2929"/>
<path fill-rule="evenodd" clip-rule="evenodd" d="M18.8321 21.3904C18.2025 21.8478 17.3214 21.7082 16.8641 21.0787L13.862 16.9467C13.4046 16.3172 13.5442 15.4361 14.1737 14.9787C14.8032 14.5213 15.6843 14.6609 16.1417 15.2904L19.1438 19.4224C19.6011 20.0519 19.4616 20.933 18.8321 21.3904Z" fill="#EC2929"/>
<path fill-rule="evenodd" clip-rule="evenodd" d="M5.58158 21.3904C4.95205 20.933 4.8125 20.0519 5.26988 19.4223L8.27194 15.2904C8.72931 14.6608 9.61042 14.5213 10.2399 14.9787C10.8695 15.436 11.009 16.3171 10.5517 16.9467L7.54959 21.0786C7.09221 21.7082 6.2111 21.8477 5.58158 21.3904Z" fill="#EC2929"/>
<path fill-rule="evenodd" clip-rule="evenodd" d="M1.4869 8.78868C1.72736 8.04863 2.52222 7.64363 3.26227 7.88408L8.11971 9.46236C8.85976 9.70282 9.26476 10.4977 9.02431 11.2377C8.78385 11.9778 7.98899 12.3828 7.24894 12.1423L2.3915 10.564C1.65144 10.3236 1.24644 9.52873 1.4869 8.78868Z" fill="#EC2929"/>
</svg>