<svg xmlns:xlink="http://www.w3.org/1999/xlink" xmlns="http://www.w3.org/2000/svg" width="24" height="24" viewBox="0 0 24 24" fill="none">
<path d="M3 12C3 7.02802 7.02903 3 11.9985 3C16.9718 3 21 7.02802 21 12C21 16.9724 16.9718 21 11.9985 21C11.0171 21 10.0737 20.8423 9.19005 20.5545C9.82998 16.8397 12.1751 13.8106 15.2747 12.5245C15.643 12.9502 16.1851 13.2181 16.7902 13.2181C17.8942 13.2181 18.7887 12.3224 18.7887 11.2161C18.7887 10.1108 17.8942 9.21468 16.7902 9.21468C15.685 9.21468 14.7908 10.108 14.7885 11.2122C10.8333 12.4018 7.6286 15.1631 6.00211 18.7118C5.48503 18.2501 5.02417 17.73 4.62664 17.162C4.71982 13.7061 6.42897 10.686 8.98884 8.90611C9.35612 9.31922 9.88995 9.5796 10.485 9.5796C11.5902 9.5796 12.4854 8.68092 12.4854 7.57712C12.4854 6.47053 11.5902 5.57531 10.485 5.57531C9.3785 5.57531 8.48332 6.47053 8.48332 7.57712C8.48332 7.63502 8.48725 7.69423 8.49187 7.7489C6.10757 8.58541 4.15098 10.2405 3.00614 12.3489C3.00057 12.2348 3 12.1166 3 12Z" fill="#EC2929"/>
</svg>