<svg xmlns:xlink="http://www.w3.org/1999/xlink" xmlns="http://www.w3.org/2000/svg" width="26" height="26" viewBox="0 0 26 26" fill="none">
<path fill-rule="evenodd" clip-rule="evenodd" d="M0 1.26384C0 0.565841 0.536377 0 1.19803 0C1.19803 0 0.880487 0 3.3913 0C5.90212 0 5.61261 2.99937 5.72083 5.27296C5.75271 5.94276 5.72083 6.99003 5.72083 6.99003H24.802C25.1773 6.99003 25.5309 7.17557 25.7574 7.49132C25.9838 7.80707 26.0569 8.21652 25.9549 8.59753L23.2131 18.8337C23.0673 19.378 22.5964 19.7539 22.0602 19.7539H4.51875C3.85709 19.7539 3.32072 19.188 3.32072 18.49V8.25387C3.32072 8.21862 3.32208 8.18371 3.32477 8.1492C3.32477 8.1492 3.32477 6.21739 3.32477 5.1806C3.32477 4.00517 3.32477 2.52768 1.67704 2.52768C0.0293213 2.52768 1.19803 2.52768 1.19803 2.52768C0.536377 2.52768 0 1.96184 0 1.26384Z" fill="#EC2929"/>
<circle opacity="0.6" cx="7.91309" cy="23.7391" r="2.26087" fill="#EC2929"/>
<circle opacity="0.6" cx="19.2174" cy="23.7391" r="2.26087" fill="#EC2929"/>
</svg>