<svg xmlns:xlink="http://www.w3.org/1999/xlink" xmlns="http://www.w3.org/2000/svg" width="32" height="32" viewBox="0 0 32 32" fill="none">
<path fill-rule="evenodd" clip-rule="evenodd" d="M3.4178 4.67608e-06L3.41935 0L28.5806 2.33804e-06V0.516131L28.5822 4.67608e-06C29.4878 0.00272932 30.3556 0.363693 30.9959 1.00406C31.6363 1.64444 31.9973 2.51219 32 3.4178L32 3.41936V28.5806L32 28.5822C31.9973 29.4878 31.6363 30.3556 30.9959 30.9959C30.3556 31.6363 29.4878 31.9973 28.5822 32H28.5806H21.3223C21.0373 32 20.8062 31.7689 20.8062 31.4839V18.9032C20.8062 18.6182 21.0373 18.3871 21.3223 18.3871H24.8997L25.5494 14.5806H21.3223C21.0373 14.5806 20.8062 14.3496 20.8062 14.0645V12.6137L20.8063 12.6045C20.8112 12.3294 20.8717 12.0581 20.9841 11.807C21.0966 11.5559 21.2587 11.3301 21.4606 11.1433C21.6626 10.9565 21.9002 10.8124 22.1593 10.7197C22.4132 10.629 22.6825 10.5894 22.9516 10.6034H25.6454V6.83923H22.359C20.1508 6.93526 18.9999 7.55583 18.3681 8.35952C17.718 9.18637 17.5231 10.3187 17.4839 11.6529V14.0645C17.4839 14.3496 17.2528 14.5806 16.9677 14.5806H14.0965V18.3871H16.9677C17.2528 18.3871 17.4839 18.6182 17.4839 18.9032V31.4839C17.4839 31.7689 17.2528 32 16.9677 32H3.41935H3.4178C2.51218 31.9973 1.64443 31.6363 1.00406 30.9959C0.36369 30.3556 0.00272699 29.4878 2.33804e-06 28.5822L0 28.5806V3.4178C0.00272465 2.51219 0.36369 1.64444 1.00406 1.00406C1.64443 0.363693 2.51218 0.00272932 3.4178 4.67608e-06ZM28.5798 1.03226H3.42017C2.78751 1.03436 2.18135 1.28661 1.73398 1.73398C1.28661 2.18135 1.03436 2.78751 1.03226 3.42017V28.5798C1.03436 29.2125 1.28661 29.8186 1.73398 30.266C2.18138 30.7134 2.78758 30.9657 3.42028 30.9677C3.42049 30.9677 3.4207 30.9677 3.42091 30.9677L16.4516 30.9677V19.4194H13.5804C13.2953 19.4194 13.0643 19.1883 13.0643 18.9032V14.0645C13.0643 13.7795 13.2953 13.5484 13.5804 13.5484H16.4516V11.6454C16.4516 11.6429 16.4516 11.6403 16.4517 11.6377C16.4517 11.6353 16.4518 11.6329 16.4518 11.6305C16.4916 10.2552 16.6874 8.82706 17.5566 7.72151C18.4442 6.59259 19.9415 5.90911 22.3259 5.80744C22.3332 5.80713 22.3405 5.80697 22.3479 5.80697H26.1615C26.4466 5.80697 26.6777 6.03805 26.6777 6.3231V11.1195C26.6777 11.4045 26.4466 11.6356 26.1615 11.6356H22.9373C22.927 11.6356 22.9167 11.6353 22.9064 11.6347C22.7708 11.6266 22.6348 11.646 22.5068 11.6917C22.3788 11.7375 22.2614 11.8087 22.1616 11.901C22.0619 11.9933 21.9818 12.1049 21.9262 12.2289C21.8713 12.3517 21.8414 12.4843 21.8385 12.6187V13.5484H26.161C26.3131 13.5484 26.4574 13.6154 26.5555 13.7317C26.6536 13.8479 26.6954 14.0014 26.6698 14.1513L25.844 18.9901C25.8017 19.238 25.5868 19.4194 25.3352 19.4194H21.8385V30.9677L28.5791 30.9677C28.5793 30.9677 28.5795 30.9677 28.5797 30.9677C29.2124 30.9657 29.8186 30.7134 30.266 30.266C30.7134 29.8186 30.9657 29.2124 30.9677 28.5797C30.9677 28.5795 30.9677 28.5793 30.9677 28.5791V3.42091C30.9677 3.4207 30.9677 3.42049 30.9677 3.42028C30.9657 2.78759 30.7134 2.18138 30.266 1.73398C29.8186 1.28661 29.2125 1.03436 28.5798 1.03226Z" fill="#EC2929"/>
</svg>