<svg xmlns:xlink="http://www.w3.org/1999/xlink" xmlns="http://www.w3.org/2000/svg" width="32" height="32" viewBox="0 0 32 32" fill="none">
<path fill-rule="evenodd" clip-rule="evenodd" d="M22.061 0.5C24.5605 0.499597 26.958 1.49074 28.7276 3.25596C30.4972 5.0212 31.4943 7.41635 31.5 9.91585L31.5 9.917L31.5 22.017L31.5 22.0181C31.4944 24.5177 30.4974 26.913 28.7278 28.6784C26.9582 30.4437 24.5606 31.4349 22.061 31.4345H9.935C7.43622 31.4338 5.03957 30.4422 3.27089 28.677C1.50221 26.9119 0.505733 24.5174 0.500001 22.0186L0.5 22.0175V9.9175L0.500001 9.91638C0.505593 7.41752 1.502 5.02288 3.2707 3.25764C5.0394 1.49241 7.43599 0.500693 9.93486 0.5L22.061 0.5ZM28.0214 3.96394C26.4393 2.38574 24.2957 1.49962 22.0611 1.5H9.93514C7.7011 1.50066 5.55837 2.38728 3.97712 3.96544C2.39596 5.5435 1.50514 7.68418 1.5 9.91807V22.0169C1.50527 24.2507 2.39614 26.3913 3.97728 27.9692C5.55852 29.5473 7.70105 30.4338 9.935 30.4345H22.061C24.2957 30.4349 26.4394 29.5487 28.0216 27.9704C29.6035 26.3923 30.4948 24.2512 30.5 22.0167L30.5 22.0159V9.91815L30.5 9.91733C30.4947 7.68297 29.6033 5.54194 28.0214 3.96394Z" fill="#EC2929"/>
<path fill-rule="evenodd" clip-rule="evenodd" d="M24.2923 7.03017C24.1275 6.96215 23.9509 6.92726 23.7727 6.9275L23.772 6.9275C23.503 6.9275 23.24 7.00731 23.0164 7.15682C22.7928 7.30634 22.6185 7.51883 22.5157 7.76742C22.4129 8.01601 22.3862 8.28951 22.4389 8.5533C22.4915 8.8171 22.6213 9.05933 22.8117 9.24935C23.0022 9.43936 23.2447 9.56861 23.5086 9.62073C23.7725 9.67286 24.0459 9.64552 24.2943 9.54217C24.5427 9.43883 24.7548 9.26412 24.9038 9.04017C25.0528 8.81622 25.1321 8.55308 25.1315 8.28408L25.1315 8.2834C25.1314 8.10514 25.0961 7.92865 25.0277 7.76402C24.9593 7.59939 24.8592 7.44984 24.733 7.32392C24.6068 7.19801 24.4571 7.09819 24.2923 7.03017ZM23.7717 5.9275C24.0812 5.92713 24.3878 5.98772 24.6739 6.10582C24.9601 6.22397 25.2202 6.39735 25.4394 6.61605C25.6585 6.83476 25.8325 7.09451 25.9512 7.38046C26.07 7.66642 26.1313 7.97296 26.1315 8.2826L25.6315 8.283L26.1315 8.28193L26.1315 8.2826C26.1324 8.74924 25.9949 9.20567 25.7363 9.59417C25.4777 9.98286 25.1095 10.2861 24.6785 10.4654C24.2474 10.6448 23.7728 10.6922 23.3148 10.6018C22.8568 10.5113 22.4359 10.287 22.1054 9.95721C21.7749 9.62743 21.5497 9.20702 21.4582 8.74919C21.3668 8.29135 21.4132 7.81667 21.5916 7.38524C21.7701 6.9538 22.0725 6.58499 22.4606 6.3255C22.8487 6.06607 23.3049 5.92756 23.7717 5.9275ZM15.999 7.725L16.0002 7.725C18.187 7.7257 20.2844 8.59365 21.8322 10.1385C23.3801 11.6834 24.2521 13.779 24.257 15.9659L24.257 15.967C24.257 17.5964 23.774 19.1893 22.8691 20.5443C21.9641 21.8994 20.6779 22.9558 19.1728 23.5801C17.6677 24.2044 16.0113 24.3685 14.4129 24.0518C12.8146 23.7351 11.346 22.9517 10.1927 21.8006C9.03938 20.6495 8.25315 19.1824 7.93333 17.5847C7.61351 15.987 7.77445 14.3303 8.39582 12.824C9.01719 11.3177 10.0711 10.0293 11.4244 9.12178C12.7777 8.21422 14.3696 7.72816 15.999 7.725ZM16.0004 8.725C14.5689 8.72789 13.1703 9.15497 11.9814 9.95231C10.7923 10.7498 9.86623 11.8818 9.32025 13.2053C8.77427 14.5289 8.63286 15.9845 8.91387 17.3884C9.19489 18.7923 9.88573 20.0814 10.8991 21.0928C11.9125 22.1042 13.2029 22.7926 14.6073 23.0709C16.0117 23.3492 17.4671 23.2049 18.7896 22.6564C20.1121 22.1078 21.2423 21.1796 22.0375 19.989C22.8325 18.7985 23.2569 17.3992 23.257 15.9677C23.2526 14.0458 22.4861 12.204 21.1258 10.8463C19.7655 9.48861 17.9223 8.72576 16.0004 8.725Z" fill="#EC2929"/>
<path fill-rule="evenodd" clip-rule="evenodd" d="M16 19.5C17.933 19.5 19.5 17.933 19.5 16C19.5 14.067 17.933 12.5 16 12.5C14.067 12.5 12.5 14.067 12.5 16C12.5 17.933 14.067 19.5 16 19.5ZM16 20.5C18.4853 20.5 20.5 18.4853 20.5 16C20.5 13.5147 18.4853 11.5 16 11.5C13.5147 11.5 11.5 13.5147 11.5 16C11.5 18.4853 13.5147 20.5 16 20.5Z" fill="#EC2929"/>
</svg>