<svg width="231" height="36" viewBox="0 0 231 36" fill="none" xmlns="http://www.w3.org/2000/svg">
<path fill-rule="evenodd" clip-rule="evenodd" d="M24.3191 2.08394L7.47031 8.42753C7.2131 8.53067 6.99299 8.70519 6.83767 8.92925C6.68107 9.15516 6.59744 9.42116 6.59744 9.69334C6.59744 9.96551 6.68107 10.2315 6.83767 10.4574C6.99378 10.6826 7.21534 10.8578 7.47424 10.9607L24.617 17.6172C25.8669 17.9599 27.1905 17.9598 28.4404 17.6167L45.4116 11.1116C45.7535 10.9338 46.0585 10.4489 46.075 9.809C46.0913 9.17447 45.8199 8.72995 45.4338 8.5599L28.5661 2.08315C27.1768 1.70852 25.7083 1.70878 24.3191 2.08394ZM23.77 0.361362C25.5181 -0.120454 27.37 -0.120454 29.1181 0.361362L29.1629 0.373707L46.1506 6.89659L46.1653 6.90278C47.4769 7.45767 47.9618 8.75282 47.9334 9.85404C47.9054 10.9405 47.3733 12.1898 46.201 12.7442L46.1687 12.7595L29.0408 19.3246L28.9986 19.3365C27.3845 19.7898 25.6709 19.7898 24.0568 19.3365L24.0126 19.3241L6.77448 12.6306C6.17252 12.3925 5.65736 11.9859 5.29472 11.4628C4.93208 10.9397 4.7384 10.3236 4.7384 9.69334C4.7384 9.06303 4.93208 8.44701 5.29472 7.92388C5.65736 7.40075 6.17253 6.99421 6.77449 6.75614L6.78177 6.75326L23.7282 0.372882L23.77 0.361362Z" fill="#65BA2A"/>
<path d="M48.1669 16.0676V25.3738C48.1669 27.5727 47.2932 28.4498 46.0848 28.9785C44.8764 29.5072 34.8624 33.3102 30.6858 34.8242C29.1814 35.4156 27.5658 35.6943 25.9434 35.6426C24.3209 35.5909 22.7277 35.2097 21.2667 34.5238C18.8933 33.5626 14.9645 31.9224 11.6616 31.7602C8.35875 31.598 4.69191 33.5155 2.41603 35.0826C1.96624 35.3923 0.965911 35.4464 0.965942 33.9445C0.966013 30.5345 0.965979 25.3858 0.965979 23.277C0.965979 21.1683 1.3192 20.4113 2.82502 18.9574C3.59342 18.2184 7.45402 15.2685 11.9467 16.8125C15.8817 18.1643 20.6656 20.2611 22.9026 20.8739C25.5111 21.5409 28.2651 21.4426 30.8159 20.5915C32.7803 19.8645 43.5441 15.647 45.3784 14.9741C47.2126 14.3012 48.1669 14.157 48.1669 16.0676Z" fill="black"/>
<path d="M17.2076 8.99671C17.3936 9.47133 17.8273 10.5828 18.069 11.0394C18.3107 11.496 17.9141 11.5501 17.5671 11.4419C16.6186 11.0478 15.7186 10.552 14.8839 9.96398C14.3509 9.48936 14.5802 9.5194 14.8839 9.36319C15.1875 9.20699 15.9993 8.7624 16.2905 8.62422C16.5818 8.48604 16.935 8.28177 17.2076 8.99671Z" fill="#EC2929"/>
<path d="M25.5734 5.22358C27.2031 5.07338 31.4789 5.9265 34.1249 7.95718C34.1987 8.01765 34.2523 8.09793 34.2791 8.18789C34.3059 8.27786 34.3046 8.37349 34.2755 8.46277C34.2463 8.55204 34.1906 8.63096 34.1153 8.68959C34.04 8.74822 33.9485 8.78395 33.8523 8.79228C30.6361 9.05062 25.7964 7.18816 24.9227 6.25093C24.6438 5.96255 25.1644 5.25963 25.5734 5.22358Z" fill="#EC2929"/>
<path d="M21.4897 7.77665C21.4236 7.71349 21.371 7.63819 21.3352 7.55517C21.2993 7.47214 21.2809 7.38303 21.2809 7.29302C21.2809 7.20301 21.2993 7.11389 21.3352 7.03086C21.371 6.94784 21.4236 6.87255 21.4897 6.80938L22.2457 6.4429C22.7687 6.40779 23.2911 6.51826 23.7515 6.76132C24.2597 7.00163 29.5641 10.3661 35.6494 9.47088C41.4558 8.62978 37.118 10.8887 36.6099 11.069C36.1017 11.2492 34.3666 11.9642 34.0196 12.1204C33.6726 12.2766 32.2907 12.1204 30.5308 12.2345C28.0273 12.3547 23.4851 10.6544 21.4897 7.77665Z" fill="#EC2929"/>
<path d="M18.4347 7.68661C19.2217 7.27807 20.3495 7.72866 20.9134 8.37752C23.0203 10.8167 25.499 12.523 29.434 12.8774C31.5966 13.0697 30.7477 13.6825 29.9235 13.9649C29.0993 14.2472 26.6826 14.6918 25.8584 14.5296C24.4822 14.1608 23.1291 13.7155 21.8057 13.1959C21.0001 12.8774 19.7546 12.2166 19.3952 11.6218C18.9149 10.7013 18.5008 9.74982 18.1558 8.77404C18.0689 8.58888 18.0491 8.38063 18.0997 8.18319C18.1504 7.98575 18.2684 7.81073 18.4347 7.68661Z" fill="#EC2929"/>
<path d="M73.5465 11.1358C72.0032 10.0299 70.5456 9.47687 69.1737 9.47687C68.3163 9.47687 67.6304 9.70373 67.116 10.1575C66.6015 10.6112 66.3443 11.15 66.3443 11.7739C66.3443 12.3694 66.6158 12.8799 67.1589 13.3052C67.7305 13.7306 68.6164 14.2269 69.8168 14.794C71.0172 15.3328 71.9889 15.8291 72.732 16.2828C74.5039 17.3604 75.3899 18.8776 75.3899 20.8343C75.3899 21.997 75.0612 23.0604 74.4039 24.0246C73.7751 24.9888 72.8749 25.7545 71.7031 26.3216C70.5313 26.8888 69.0594 27.1724 67.2875 27.1724C65.5155 27.1724 63.5863 26.7328 61.5 25.8537L62.1431 21.8552L62.6146 21.5575C63.472 22.2948 64.4009 22.8619 65.4012 23.259C66.4301 23.656 67.3732 23.8545 68.2306 23.8545C69.1166 23.8545 69.8168 23.6276 70.3312 23.1739C70.8457 22.7202 71.1029 22.1672 71.1029 21.5149C71.1029 20.8627 70.8171 20.3239 70.2455 19.8985C69.6739 19.4731 68.7736 18.991 67.5447 18.4522C66.3443 17.8851 65.3869 17.3746 64.6724 16.9209C62.929 15.8716 62.0573 14.3687 62.0573 12.4119C62.0573 11.2209 62.3717 10.1575 63.0005 9.22164C63.6578 8.25746 64.5581 7.49179 65.7013 6.92463C66.873 6.35746 68.2592 6.08806 69.8597 6.11642C71.4601 6.14478 73.1321 6.49925 74.8755 7.17985L74.1895 10.8806L73.5465 11.1358Z" fill="black"/>
<path d="M92.8848 23.9821C93.1421 23.9821 93.4422 23.9396 93.7851 23.8545L94.0852 24.1097L93.6994 26.3216C93.0135 26.747 92.2275 27.0164 91.3415 27.1299C89.9983 27.0164 89.1552 26.2224 88.8122 24.7478H88.4692C87.2403 25.9105 85.9828 26.6761 84.6967 27.0448C83.0962 27.0448 81.8672 26.6903 81.0098 25.9813C80.1524 25.244 79.7237 24.1806 79.7237 22.791L79.8095 19.0478L79.6809 12.3269L83.7964 11.9866L83.6678 21.3873C83.6678 22.8903 84.3108 23.6418 85.5969 23.6418C86.5115 23.6418 87.4404 23.2306 88.3835 22.4082V12.3269L92.4562 11.9866L92.1989 23.0463C92.1989 23.6702 92.4276 23.9821 92.8848 23.9821Z" fill="black"/>
<path d="M102.61 11.8164C104.239 11.7881 105.697 12.0291 106.983 12.5396L106.426 15.6448L105.911 15.8149C104.625 14.9925 103.453 14.5813 102.396 14.5813C101.881 14.5813 101.467 14.7231 101.153 15.0067C100.867 15.2619 100.724 15.5881 100.724 15.9851C100.724 16.3821 100.924 16.7224 101.324 17.006C101.724 17.2896 102.353 17.6015 103.21 17.9418C104.068 18.2821 104.768 18.6224 105.311 18.9627C105.883 19.2746 106.368 19.7142 106.769 20.2813C107.169 20.8202 107.369 21.5149 107.369 22.3657C107.369 23.2164 107.154 24.0105 106.726 24.7478C105.725 26.3925 103.939 27.2149 101.367 27.2149C99.8236 27.2149 98.2231 26.8888 96.5655 26.2366L97.0799 22.9187L97.4658 22.6634C98.1231 23.2306 98.8662 23.6843 99.695 24.0246C100.524 24.3366 101.238 24.4925 101.839 24.4925C102.439 24.4925 102.896 24.3507 103.21 24.0672C103.525 23.7836 103.682 23.4433 103.682 23.0463C103.682 22.6209 103.482 22.2664 103.082 21.9828C102.682 21.6709 102.053 21.3448 101.195 21.0045C100.338 20.6358 99.6379 20.2955 99.0948 19.9836C97.723 19.2179 97.0371 18.0978 97.0371 16.6231C97.0371 15.1485 97.5515 13.9858 98.5804 13.1351C99.6379 12.256 100.981 11.8164 102.61 11.8164Z" fill="black"/>
<path d="M118.62 15.3045C117.82 15.3045 116.891 15.7299 115.834 16.5806L115.748 20.3664L115.962 26.8746H111.718L111.932 20.7067L111.761 4.8403L116.005 4.5L115.876 14.156H116.048C117.22 13.0784 118.492 12.3127 119.863 11.859C121.492 11.859 122.736 12.2276 123.593 12.9649C124.45 13.7022 124.865 14.7515 124.836 16.1127L124.751 20.3664L124.922 26.8746H120.635L120.892 17.644C120.949 16.0843 120.192 15.3045 118.62 15.3045Z" fill="black"/>
<path d="M132.217 4.79776C132.903 4.79776 133.432 4.99627 133.803 5.39328C134.175 5.76194 134.361 6.30075 134.361 7.0097C134.361 7.6903 134.161 8.24328 133.761 8.66866C133.36 9.09403 132.803 9.30672 132.089 9.30672C131.403 9.30672 130.86 9.12239 130.46 8.75373C130.088 8.35672 129.902 7.81791 129.902 7.13731C129.902 6.45672 130.117 5.90373 130.545 5.47836C130.974 5.02463 131.531 4.79776 132.217 4.79776ZM134.232 26.8746H129.945L130.16 20.7493L129.988 12.3269L134.275 11.9866L133.975 20.3664L134.232 26.8746Z" fill="black"/>
<path d="M144.274 15.347L147.146 15.3896L150.661 15.3045L150.961 15.6022L150.661 18.7925L146.803 18.7075L144.231 18.75L144.188 20.3664L144.359 26.8746H139.987L140.244 20.7493L139.987 6.37164H152.29L152.548 6.71194L152.247 9.94478L147.317 9.77463H144.359L144.274 15.347Z" fill="black"/>
<path d="M160.852 11.7739C162.766 11.7739 164.195 12.1425 165.139 12.8799C166.082 13.6172 166.553 14.6381 166.553 15.9425C166.553 16.3112 166.482 17.5164 166.339 19.5582C166.339 19.5582 166.296 20.7209 166.21 23.0463C166.21 23.4149 166.253 23.6702 166.339 23.8119C166.425 23.9254 166.596 23.9821 166.853 23.9821C167.111 23.9821 167.411 23.9396 167.754 23.8545L168.097 24.1097L167.668 26.3216C166.982 26.747 166.21 27.0164 165.353 27.1299C163.981 27.0164 163.152 26.2366 162.866 24.7903H162.652C161.566 25.9246 160.466 26.7187 159.351 27.1724C157.808 27.144 156.593 26.7328 155.707 25.9388C154.821 25.1448 154.378 24.0813 154.378 22.7485C154.378 20.6784 155.478 19.4306 157.679 19.0052L162.609 18.1119V16.7933C162.609 15.4037 161.952 14.709 160.637 14.709C159.322 14.709 157.779 15.3187 156.007 16.5381L155.664 16.3679L155.193 13.5604C157.079 12.3694 158.965 11.7739 160.852 11.7739ZM159.18 20.9619C158.522 21.1037 158.194 21.5007 158.194 22.153C158.194 23.4291 158.751 24.0672 159.865 24.0672C160.694 24.0672 161.58 23.5709 162.523 22.5784L162.609 20.1963L159.18 20.9619Z" fill="black"/>
<path d="M190.284 17.644C190.313 16.0843 189.641 15.3045 188.269 15.3045C187.297 15.3045 186.283 15.7299 185.225 16.5806L185.183 20.3664L185.311 26.8746H181.067L181.324 17.644C181.324 16.0843 180.638 15.3045 179.266 15.3045C178.295 15.3045 177.266 15.7299 176.18 16.5806V20.3664L176.394 26.8746H172.15L172.364 20.7493L172.193 12.3269L176.223 11.9866V14.156H176.437C177.666 13.0784 178.952 12.3127 180.295 11.859C182.725 11.859 184.268 12.653 184.925 14.241H185.054C186.311 13.1067 187.712 12.3127 189.255 11.859C190.884 11.859 192.113 12.2276 192.942 12.9649C193.799 13.7022 194.214 14.7515 194.185 16.1127L194.1 20.3664L194.271 26.8746H190.027L190.284 17.644Z" fill="black"/>
<path d="M201.601 4.79776C202.287 4.79776 202.815 4.99627 203.187 5.39328C203.558 5.76194 203.744 6.30075 203.744 7.0097C203.744 7.6903 203.544 8.24328 203.144 8.66866C202.744 9.09403 202.187 9.30672 201.472 9.30672C200.786 9.30672 200.243 9.12239 199.843 8.75373C199.472 8.35672 199.286 7.81791 199.286 7.13731C199.286 6.45672 199.5 5.90373 199.929 5.47836C200.357 5.02463 200.915 4.79776 201.601 4.79776ZM203.616 26.8746H199.329L199.543 20.7493L199.372 12.3269L203.658 11.9866L203.358 20.3664L203.616 26.8746Z" fill="black"/>
<path d="M213.228 26.8746H208.984L209.199 20.7067L209.027 4.8403L213.271 4.5L213.014 20.3664L213.228 26.8746Z" fill="black"/>
<path d="M223.926 22.5784H224.141L226.756 14.709L227.313 12.0291H231L226.156 25.8537C225.47 27.8672 224.527 29.3985 223.326 30.4478C222.126 31.5254 220.425 32.3761 218.225 33L217.925 32.9575C217.153 32.2769 216.524 31.4261 216.038 30.4052L216.167 29.9799C218.653 29.5545 220.64 28.5194 222.126 26.8746L216.639 12.1567L220.754 11.944L221.226 14.3261L223.926 22.5784Z" fill="black"/>
</svg>
