<svg xmlns:xlink="http://www.w3.org/1999/xlink" xmlns="http://www.w3.org/2000/svg" width="40" height="40" viewBox="0 0 40 40" fill="none">
<path d="M26.9 26.4875C27.3125 26.7875 27.9875 27.1625 27.875 28.0625C27.7625 28.9625 26.4125 31.25 23.5625 31.25C20.7125 31.25 17.1875 29 14.1125 25.925C11.0375 22.85 8.75 19.325 8.75 16.4375C8.75 13.55 11.3 12.2375 11.9375 12.125C12.575 12.0125 13.2125 12.6875 13.5125 13.1L15.6875 16.4C15.905 16.7351 15.9836 17.1416 15.9066 17.5336C15.8296 17.9255 15.6031 18.2721 15.275 18.5C14.3375 19.25 12.8 20.1875 16.325 23.675C19.85 27.1625 20.75 25.6625 21.5 24.725C21.7279 24.3969 22.0745 24.1704 22.4664 24.0934C22.8584 24.0164 23.265 24.095 23.6 24.3125L26.9 26.4875Z" stroke="#EC2929" stroke-width="1.5" stroke-miterlimit="10" stroke-linecap="round" stroke-linejoin="round"/>
<path d="M19.25 8.75C22.4326 8.75 25.4848 10.0143 27.7353 12.2647C29.9857 14.5152 31.25 17.5674 31.25 20.75M18.6664 13.5836C20.8544 13.5836 22.9528 14.4528 24.5 16C26.0472 17.5472 26.9164 19.6456 26.9164 21.8336" stroke="#EC2929" stroke-width="1.5" stroke-miterlimit="10" stroke-linecap="round" stroke-linejoin="round"/>
</svg>