<svg xmlns:xlink="http://www.w3.org/1999/xlink" xmlns="http://www.w3.org/2000/svg" width="40" height="40" viewBox="0 0 40 40" fill="none">
<path fill-rule="evenodd" clip-rule="evenodd" d="M11.6163 11.6161C12.1045 11.1279 12.896 11.128 13.3841 11.6162L19.375 17.608L25.3656 11.6174C25.8538 11.1292 26.6452 11.1292 27.1334 11.6174C27.6216 12.1055 27.6216 12.897 27.1334 13.3851L21.1427 19.3758L27.1335 25.3674C27.6216 25.8556 27.6215 26.6471 27.1333 27.1352C26.6451 27.6233 25.8537 27.6233 25.3656 27.1351L19.3749 21.1436L13.3834 27.1351C12.8952 27.6233 12.1038 27.6233 11.6156 27.1351C11.1275 26.647 11.1275 25.8555 11.6156 25.3674L17.6073 19.3757L11.6162 13.3838C11.1281 12.8956 11.1281 12.1042 11.6163 11.6161Z" fill="#EC2929"/>
</svg>